<svg id="Flat" height="512" viewBox="0 0 512 512" width="512" xmlns="http://www.w3.org/2000/svg"><path d="m184 328h-160v-232l.00008-.00008a113.137 113.137 0 0 1 159.99984 0l.00008.00008z" fill="#fc7"/><path d="m88 192h-32a8.00008 8.00008 0 0 1 -8-8v-32a8.00008 8.00008 0 0 1 8-8h32a8.00008 8.00008 0 0 1 8 8v32a8.00008 8.00008 0 0 1 -8 8zm-24-16h16v-16h-16z" fill="#808080"/><path d="m152 192h-32a8.00008 8.00008 0 0 1 -8-8v-32a8.00008 8.00008 0 0 1 8-8h32a8.00008 8.00008 0 0 1 8 8v32a8.00008 8.00008 0 0 1 -8 8zm-24-16h16v-16h-16z" fill="#808080"/><path d="m88 256h-32a8.00008 8.00008 0 0 1 -8-8v-32a8.00008 8.00008 0 0 1 8-8h32a8.00008 8.00008 0 0 1 8 8v32a8.00008 8.00008 0 0 1 -8 8zm-24-16h16v-16h-16z" fill="#808080"/><path d="m128 248h-16v-32a8.00008 8.00008 0 0 1 8-8h32v16h-24z" fill="#808080"/><path d="m104 112a8.00008 8.00008 0 0 1 -8-8v-80a8 8 0 0 1 16 0v80a8.00008 8.00008 0 0 1 -8 8z" fill="#bc8d5d"/><path d="m312 448h176v48h-176z" fill="#eb352f"/><rect fill="#57c1ff" height="448" rx="16" width="240" x="152" y="40"/><path d="m152 400v8a16 16 0 0 0 16 16h208a16 16 0 0 0 16-16v-288a16 16 0 0 0 -16-16h-208a16 16 0 0 0 -16 16z" fill="#65dcff"/><circle cx="328" cy="72" fill="#808080" r="8"/><circle cx="360" cy="72" fill="#808080" r="8"/><path d="m240 448h64v16h-64z" fill="#2b7cd4"/><path d="m240 64h64v16h-64z" fill="#2b7cd4"/><path d="m184 328h176v64h-176z" fill="#a0cc00"/><path d="m320 352h16v16h-16z" fill="#85b200"/><path d="m208 352h32v16h-32z" fill="#85b200"/><path d="m256 352h48v16h-48z" fill="#85b200"/><g fill="#808080"><path d="m248 208h-48a8.00008 8.00008 0 0 1 -8-8v-48a8.00008 8.00008 0 0 1 8-8h48a8.00008 8.00008 0 0 1 8 8v48a8.00008 8.00008 0 0 1 -8 8zm-40-16h32v-32h-32z"/><path d="m344 208h-48a8.00008 8.00008 0 0 1 -8-8v-48a8.00008 8.00008 0 0 1 8-8h48a8.00008 8.00008 0 0 1 8 8v48a8.00008 8.00008 0 0 1 -8 8zm-40-16h32v-32h-32z"/><path d="m248 304h-48a8.00008 8.00008 0 0 1 -8-8v-48a8.00008 8.00008 0 0 1 8-8h48a8.00008 8.00008 0 0 1 8 8v48a8.00008 8.00008 0 0 1 -8 8zm-40-16h32v-32h-32z"/><path d="m344 304h-32a8.00008 8.00008 0 0 1 -8-8v-32a8.00008 8.00008 0 0 1 8-8h32a8.00008 8.00008 0 0 1 8 8v32a8.00008 8.00008 0 0 1 -8 8zm-24-16h16v-16h-16z"/><path d="m288 272h-16v-40a8.00008 8.00008 0 0 1 8-8h24v16h-16z"/><path d="m272 288h16v16h-16z"/><path d="m320 224h24v16h-24z"/></g><path d="m456 230.63v217.37h-64v-24l-10.75-10.75a63.99478 63.99478 0 0 1 0-90.5l10.75-10.75-46-46a25.45584 25.45584 0 0 1 36-36l10 10v-64h9.37a54.62742 54.62742 0 0 1 54.63 54.63z" fill="#ffc7cc"/><path d="m419.31 244.69-11.31 11.31-16-16v-22.63z" fill="#fe99a0"/></svg>