<svg id="scan" xmlns="http://www.w3.org/2000/svg" width="20" height="18" viewBox="0 0 20 18">
  <path id="Icon_color" data-name="Icon color" d="M17,18H13.5a.5.5,0,0,1-.5-.5v-1a.5.5,0,0,1,.5-.5H17V12.5a.5.5,0,0,1,.5-.5h1a.5.5,0,0,1,.5.5V16A2,2,0,0,1,17,18ZM6.5,18H3a2,2,0,0,1-2-2V12.5a.5.5,0,0,1,.5-.5h1a.5.5,0,0,1,.5.5V16H6.5a.5.5,0,0,1,.5.5v1A.5.5,0,0,1,6.5,18Zm13-8H.5A.5.5,0,0,1,0,9.5v-1A.5.5,0,0,1,.5,8h19a.5.5,0,0,1,.5.5v1A.5.5,0,0,1,19.5,10Zm-1-4h-1a.5.5,0,0,1-.5-.5V2H13.5a.5.5,0,0,1-.5-.5V.5a.5.5,0,0,1,.5-.5H17a2,2,0,0,1,2,2V5.5A.5.5,0,0,1,18.5,6ZM2.5,6h-1A.5.5,0,0,1,1,5.5V2A2,2,0,0,1,3,0H6.5A.5.5,0,0,1,7,.5v1a.5.5,0,0,1-.5.5H3V5.5A.5.5,0,0,1,2.5,6Z" fill="#fff"/>
</svg>
