<svg id="Group_136" data-name="Group 136" xmlns="http://www.w3.org/2000/svg" xmlns:xlink="http://www.w3.org/1999/xlink" width="283.9" height="283.679" viewBox="0 0 283.9 283.679">
  <defs>
    <clipPath id="clip-path">
      <circle id="Oval" cx="131.561" cy="131.561" r="131.561" transform="translate(0.594 0)" fill="none"/>
    </clipPath>
    <clipPath id="clip-path-2">
      <path id="Path" d="M86.677,43.6C72.965,20.163,51.1,5.958,35.016,1.822,28.711.2,16.086,0,16.086,0S17.235,78.454,17.3,104.354c.005,1.988.015,5.475.024,9.048C7.547,114.867,0,115.287,0,115.287l9.633,25.379C120.714,152.4,111.22,85.552,86.677,43.6Z" transform="translate(0.594)" fill="none"/>
    </clipPath>
    <clipPath id="clip-path-3">
      <path id="Path-2" data-name="Path" d="M104.785,0C68.095,5.718,38.061,74.916,38.061,74.916l-18.7-48.7L0,25.829S3.824,129.963,51.093,127.683c7.655-.369,16.338-9.775,24.492-23.082,3.006,11.459,6.168,20.613,6.168,20.613l23.2,1.292S105-.034,104.785,0Z" transform="translate(0.454 0.19)" fill="none"/>
    </clipPath>
  </defs>
  <circle id="Oval-2" data-name="Oval" cx="131.561" cy="131.561" r="131.561" transform="translate(20.777 14.95)" fill="#e8fff1"/>
  <path id="Path-3" data-name="Path" d="M12.806,0s3.82,18.052-9.844,39.334C2.961,39.334-8.2,15.032,12.806,0Z" transform="translate(44.637 109.886)" fill="#26c165"/>
  <path id="Path-4" data-name="Path" d="M0,0S.855,15.927,17.033,30.635C17.032,30.635,20.9,7.846,0,0Z" transform="translate(20.434 126.731)" fill="#26c165"/>
  <path id="Path-5" data-name="Path" d="M15.808,11S13.981-1.142,3.009.087,14.5,5.848,15.808,11Z" transform="translate(19.647 150.225)" fill="#26c165"/>
  <path id="Path-6" data-name="Path" d="M1.815,0A181.3,181.3,0,0,1,13.548,51.689H11.238S10.186,16,0,0Z" transform="translate(31.783 145.232)" fill="#33cb71"/>
  <path id="Path-7" data-name="Path" d="M7.464.226a160.051,160.051,0,0,0-7.4,52.9l2.264-.291S.03,16.077,9.244,0Z" transform="translate(42.702 139.525)" fill="#33cb71"/>
  <path id="Path-8" data-name="Path" d="M1.815,0s8.621,13.765,11.733,38.66h-2.31S9.039,9.375,0,0Z" transform="translate(30.877 155.439)" fill="#33cb71"/>
  <path id="Path-9" data-name="Path" d="M13.548,7.1S10.485-2.027,2.181.415,11.839,3.3,13.548,7.1Z" transform="translate(23.313 158.339)" fill="#33cb71"/>
  <path id="Path-10" data-name="Path" d="M.026,35.145S-1.609,8.6,20.814,0C20.815,0,12.292,34.15.026,35.145Z" transform="translate(48.881 138.725)" fill="#26c165"/>
  <path id="Path-11" data-name="Path" d="M0,11.8S2.287-1.186,13.974.088,1.537,6.287,0,11.8Z" transform="translate(51.678 162.773)" fill="#33cb71"/>
  <path id="Path-12" data-name="Path" d="M10.5,0A169.579,169.579,0,0,0,0,42.888l1.77.021S4.311,12.3,11.9.013Z" transform="translate(42.915 169.68)" fill="#26c165"/>
  <path id="Path-13" data-name="Path" d="M13.279,0A172.257,172.257,0,0,0,0,51.509l2.28.025S3.9,14.688,15.068.019Z" transform="translate(42.7 154.183)" fill="#33cb71"/>
  <path id="Path-14" data-name="Path" d="M25.238,13.079c.481,4.157,2.024,11.742,1.543,15.921-.392,3.406-6.892,2.408-9.047,1.612C12.362,28.63.722,21.259.112,15.985-.811,8,4.065.875,11,.074S24.315,5.093,25.238,13.079Z" transform="translate(227.371 46.736)" fill="#fff"/>
  <path id="Path-15" data-name="Path" d="M8.7,0H0V54.311H8.7Z" transform="translate(234.004 69.062)" fill="#fff"/>
  <path id="Path-16" data-name="Path" d="M38.459,6.925C35.407,3.657,24.585-4.014,15.967,2.619c-5.734,4.414-4.475,9-3.493,12.409C-.011,19.991-12.153,50.543,24.024,29.941c6.82-3.884,10.2-9.8,18.126-13.432,6.551-3,14.159-4.063,14.09-8.134C56.185,5.14,48.364,5.2,38.459,6.925Z" transform="translate(212.688 40.762)" fill="#26c165"/>
  <path id="Path-17" data-name="Path" d="M3.811,4.26S11.216,7.736,24.209,0C24.209,0,12.231,11.757,0,6.54c0,0,1.807-1.269,2.3-1.526C3.612,4.341,3.811,4.26,3.811,4.26Z" transform="translate(221.351 51.53)" fill="#fff"/>
  <g id="Clipped" transform="translate(20.183 14.95)">
    <circle id="Oval-3" data-name="Oval" cx="131.561" cy="131.561" r="131.561" transform="translate(0.594 0)" fill="none"/>
    <g id="Clipped-2" data-name="Clipped" clip-path="url(#clip-path)">
      <g id="Group" transform="translate(-11.96 71.761)">
        <path id="Path-18" data-name="Path" d="M47.925,63.215,14.833,51.6,0,0H47.922Z" transform="translate(0.254 103.57)" fill="#26c165"/>
        <path id="Path-19" data-name="Path" d="M48.688,28.581l17.72,60.2,6.049-1.2L55.094,11.006,41.97,0,37.322,34.082,33.22,0,19,9.843,0,86.707l6.052,1.2L25.358,27.184l.587,1.6A47.273,47.273,0,0,1,27.8,54.866L3.026,171.573l63.382,6.89L46.956,55.044a47.284,47.284,0,0,1,1.733-26.467Z" transform="translate(192.581 0.565)" fill="#26c165"/>
      </g>
    </g>
  </g>
  <path id="Path-20" data-name="Path" d="M35.655,0H11.305A11.3,11.3,0,0,0,0,11.3V25.66A11.305,11.305,0,0,0,11.305,36.965h6.722l5.453,5.453,5.452-5.453h6.723A11.3,11.3,0,0,0,46.96,25.66V11.3A11.3,11.3,0,0,0,35.655,0Z" transform="translate(71.316 0)" fill="#ff5668"/>
  <path id="Path-21" data-name="Path" d="M13.807,14.721H1.785a1.788,1.788,0,0,1-1.773-2L1.338,1.575A1.786,1.786,0,0,1,3.111,0h9.37a1.784,1.784,0,0,1,1.772,1.575L15.58,12.725a1.785,1.785,0,0,1-1.773,2Z" transform="translate(87.712 13.416)" fill="#fff"/>
  <path id="Path-22" data-name="Path" d="M11.239,12.288S15.775,2.449,24.646.667C34.633-1.34,46.524-.1,53.948,22.824c3.008,9.288,1.942,19.466,18.47,19.819C80.248,42.81,93.487,36.472,98.5,60c2.149,10.094,5.942,6.1,18.1,11.06,16.221,6.615,23.02,43.66-5.919,51.745-8.46,2.364-18.971,1.893-34-10.568C59.52,98.013,25.508,70.263,25.508,70.263L14.835,48.334.231,28.167S-2.557,13.939,11.239,12.288Z" transform="translate(105.487 66.427)" fill="#151719"/>
  <path id="Path-23" data-name="Path" d="M31.537,35.409s-10.3-3.094-8.152-28.726L23.968,0S18.774,4.01,16.8,4.86,8.4,6.683,8.4,6.683C10.542,32.315.569,33.518.569,33.518c0,13.115-1.733,12.684.852,13.033l14.242,4.768s.084-.007.229-.024c.144.016.229.024.229.024v-.053C18.706,50.916,31.537,48.523,31.537,35.409Z" transform="translate(109.903 106.457)" fill="#ffb5a1"/>
  <path id="Path-24" data-name="Path" d="M31.611,18.963c2.92-4.948-6.363-9.479-6.363-9.479L8.382,17.155,8.135,18.5,7.649,2.2s1.812-6.055-5.1,1.917S4.984,35.706,4.984,35.706l16.542.334S28.688,23.911,31.611,18.963Z" transform="translate(0 130.388)" fill="#ffb5a1"/>
  <path id="Path-25" data-name="Path" d="M.082,5.214,0,7.525S7.414,5.546,8.054,1.241.082,5.214.082,5.214Z" transform="translate(118.511 115.754)" fill="#e89c8b"/>
  <path id="Path-26" data-name="Path" d="M33.824,17.416c-1.263-1.1-2.951-.31-3.872-.372.306-11.533-4.519-29.585-29.294-4.1,0,0-2.974,20.289,3.729,24.5s20.245-.417,24.139-12.514C31.167,27.359,36.752,19.966,33.824,17.416Z" transform="translate(104.714 82.43)" fill="#ffb5a1"/>
  <path id="Path-27" data-name="Path" d="M0,3.865S3.128,16.047,16.039,16.482l6.234-.626S22.487-9.435,0,3.865Z" transform="translate(116.062 81.912)" fill="#151719"/>
  <path id="Path-28" data-name="Path" d="M13.78.981S10.941,13.316,0,14.872C0,14.872,1.323-4.514,13.78.981Z" transform="translate(102.171 84.974)" fill="#151719"/>
  <path id="Path-29" data-name="Path" d="M1.892,3.785A1.892,1.892,0,1,0,0,1.893,1.892,1.892,0,0,0,1.892,3.785Z" transform="translate(134.531 106.091)" fill="#fff"/>
  <path id="Path-30" data-name="Path" d="M3.739,1.338,0,0S-.05,3.9,1.646,5.865Z" transform="translate(14.382 152.178)" fill="#e89c8b"/>
  <path id="Path-31" data-name="Path" d="M13.11,39.759,4.2,37.038A6.362,6.362,0,0,1,.377,28.9L7.69,4.461A6.361,6.361,0,0,1,15.658.29l8.909,2.727a6.361,6.361,0,0,1,3.824,8.142L21.08,35.588a6.362,6.362,0,0,1-7.971,4.172Z" transform="translate(4.019 114.552)" fill="#151719"/>
  <path id="Path-32" data-name="Path" d="M3.877,0S11.69,3.381,9.471,7.636,0,11.925,0,11.925Z" transform="translate(3.65 130.407)" fill="#ffb5a1"/>
  <path id="Path-33" data-name="Path" d="M12.476,4.878S8.869-3.838,8.235,2.032s.3,7.049.3,7.049-2.971-2.5-5.578,2.9A33.277,33.277,0,0,0,0,22.976L8.943,18.4Z" transform="translate(15.25 136.475)" fill="#ffb5a1"/>
  <path id="Path-34" data-name="Path" d="M104.785,0C68.095,5.718,38.061,74.916,38.061,74.916l-18.7-48.7L0,25.829S3.824,129.963,51.093,127.683c7.655-.369,16.338-9.775,24.492-23.082,3.006,11.459,6.168,20.613,6.168,20.613l23.2,1.292S105-.034,104.785,0Z" transform="translate(5.687 139.974)" fill="#ffc50c"/>
  <path id="Path-35" data-name="Path" d="M.589,0S-1.316,4.841,1.726,7.97c3.656,3.761,4.077,9.941,4.605,7.3C6.328,15.27,6.576-.06.589,0Z" transform="translate(100.711 156.042)" fill="#eeb80c"/>
  <path id="Path-36" data-name="Path" d="M.181,0S-2.84,13.934,15.81,31.315V27.222Z" transform="translate(94.824 204.103)" fill="#eeb80c"/>
  <path id="Path-37" data-name="Path" d="M15.635,0S5.45,13.922,5.732,19.067c.112,2.047,4.752,4.892,5.326,7.528a17.12,17.12,0,0,1-1.027,10.452C6.429,45.362-2.675,59.935.761,68.866c4.654,12.1,14.874,22.484,14.874,22.484Z" transform="translate(94.999 139.974)" fill="#ff4133"/>
  <path id="Path-38" data-name="Path" d="M0,0,19.364.389,25.6,10H0Z" transform="translate(5.687 165.803)" fill="#ff4133"/>
  <path id="Path-39" data-name="Path" d="M.541,7.874a.557.557,0,0,0,.506-.366.579.579,0,0,0,.033-.217V7.258c0-3.21,1.938-6.048,4.328-6.048S9.737,4.049,9.737,7.258v.033a.565.565,0,0,0,.034.217.545.545,0,0,0,.114.187.563.563,0,0,0,.178.129.543.543,0,0,0,.754-.506V7.261C10.816,3.251,8.4,0,5.408,0S0,3.251,0,7.261v.056a.557.557,0,0,0,.54.556Z" transform="translate(90.099 8.597)" fill="#fff"/>
  <path id="Path-40" data-name="Path" d="M10.994,0S.5,28.743.017,38.817c-.384,8.048,5.77,31.71,5.77,31.71" transform="translate(75.94 173.417)" fill="none" stroke="#151719" stroke-miterlimit="10" stroke-width="1.515"/>
  <path id="Path-41" data-name="Path" d="M5.259,0C4.338,1.684,1.985,2.169,0,1.082" transform="translate(110.634 111.962)" fill="none" stroke="#e89c8b" stroke-miterlimit="10" stroke-width="1.136"/>
  <path id="Path-42" data-name="Path" d="M4.082,0S-1.559,12.178.421,15.927" transform="translate(39.561 215.264)" fill="none" stroke="#151719" stroke-miterlimit="10" stroke-width="1.515"/>
  <path id="Path-43" data-name="Path" d="M15.16,11C7.683,11,1.244,6.675,0,0v111.39l30.485.165L30.461,0h-.306C28.91,6.675,22.637,11,15.16,11Z" transform="translate(110.634 145.596)" fill="#26c165"/>
  <path id="Path-44" data-name="Path" d="M20.689,6.167c-4.371-3.177-7.042-5-7.105-3.7-.161,3.276,3,6.965,3.179,6.515C16.763,8.987,4.162.4.6,0-1.278-.205,1.731,10.038,3.128,14.666c.563,1.867,1.4,5.042,2.607,6.577C16.505,34.984,51.471,34.425,52.065,31,53.232,24.28,37.083,8.2,37.083,8.2S25.06,9.344,20.689,6.167Z" transform="translate(88.537 248.17)" fill="#ffb5a1"/>
  <path id="Path-45" data-name="Path" d="M86.677,43.427C72.965,20.083,51.1,5.934,35.016,1.815,28.711.2,16.086,0,16.086,0S17.235,78.142,17.3,103.939c.005,1.98.014,5.453.023,9.013C7.547,114.411,0,114.828,0,114.828l9.633,25.278C120.714,151.8,111.22,85.213,86.677,43.427Z" transform="translate(123.741 140.826)" fill="#ffc50c"/>
  <path id="Path-46" data-name="Path" d="M9.633,32.766S18,35.611,23.618,35.507L9.633,0,0,7.487Z" transform="translate(123.741 248.169)" fill="#ff4133"/>
  <g id="Clipped-3" data-name="Clipped" transform="translate(123.339 140.532)">
    <path id="Path-47" data-name="Path" d="M86.677,43.6C72.965,20.163,51.1,5.958,35.016,1.822,28.711.2,16.086,0,16.086,0S17.235,78.454,17.3,104.354c.005,1.988.015,5.475.024,9.048C7.547,114.867,0,115.287,0,115.287l9.633,25.379C120.714,152.4,111.22,85.552,86.677,43.6Z" transform="translate(0.594)" fill="none"/>
    <g id="Clipped-4" data-name="Clipped" clip-path="url(#clip-path-2)">
      <g id="Group-2" data-name="Group" transform="translate(17.193 -40.365)">
        <path id="Path-48" data-name="Path" d="M35.937,64.139c19.848,0,35.938-14.358,35.938-32.07S55.785,0,35.937,0,0,14.358,0,32.07,16.09,64.139,35.937,64.139Z" transform="translate(0.594)" fill="none" stroke="#fff" stroke-miterlimit="10" stroke-width="22.724" opacity="0.5"/>
        <path id="Path-49" data-name="Path" d="M35.937,64.139c19.848,0,35.938-14.358,35.938-32.07S55.785,0,35.937,0,0,14.358,0,32.07,16.09,64.139,35.937,64.139Z" transform="translate(47.845 115.428)" fill="none" stroke="#fff" stroke-miterlimit="10" stroke-width="22.724" opacity="0.5"/>
      </g>
    </g>
  </g>
  <path id="Path-50" data-name="Path" d="M5.841.215s1.966,5.6-.819,9.295C2.944,12.264,0,20.632,0,20.632S1.032-2.453,5.841.215Z" transform="translate(144.015 159.154)" fill="#eeb80c"/>
  <path id="Path-51" data-name="Path" d="M17.271,0S19.834,9.795,0,27.175V20.942Z" transform="translate(141.119 214.359)" fill="#eeb80c"/>
  <path id="Path-52" data-name="Path" d="M0,0,7.183,12.477c.463,1.182,1.824,3.306,2.585,5.174a4.672,4.672,0,0,1-.2,3.918L5.339,29.692a15,15,0,0,0,.422,9.576C10,50.224,19.855,68.8,18.422,75.32,17.044,81.6,1.292,96.781,1.292,96.781Z" transform="translate(139.827 140.826)" fill="#ff4133"/>
  <path id="Path-53" data-name="Path" d="M0,82.828C9.745,83.743,77.279,78.87,13.028,0" transform="translate(150.529 169.299)" fill="none" stroke="#151719" stroke-miterlimit="10" stroke-width="1.515"/>
  <g id="Clipped-5" data-name="Clipped" transform="translate(5.233 139.784)">
    <path id="Path-54" data-name="Path" d="M104.785,0C68.095,5.718,38.061,74.916,38.061,74.916l-18.7-48.7L0,25.829S3.824,129.963,51.093,127.683c7.655-.369,16.338-9.775,24.492-23.082,3.006,11.459,6.168,20.613,6.168,20.613l23.2,1.292S105-.034,104.785,0Z" transform="translate(0.454 0.19)" fill="none"/>
    <g id="Clipped-6" data-name="Clipped" clip-path="url(#clip-path-3)">
      <path id="Path-55" data-name="Path" d="M32.069,64.139A32.07,32.07,0,1,0,0,32.07,32.07,32.07,0,0,0,32.069,64.139Z" transform="translate(-6.014 51.373)" fill="none" stroke="#fff9f9" stroke-miterlimit="10" stroke-width="22.724" opacity="0.5"/>
    </g>
  </g>
</svg>
