<svg id="Group_4" data-name="Group 4" xmlns="http://www.w3.org/2000/svg" xmlns:xlink="http://www.w3.org/1999/xlink" width="284.3" height="284.3" viewBox="0 0 284.3 284.3">
  <defs>
    <clipPath id="clip-path">
      <circle id="Mask" cx="142.15" cy="142.15" r="142.15" transform="translate(0 0)" fill="#e8fff1"/>
    </clipPath>
    <clipPath id="clip-path-2">
      <path id="Path" d="M266.475,0H0V212.041H266.475Z" transform="translate(0.234 0.605)" fill="none"/>
    </clipPath>
    <clipPath id="clip-path-3">
      <path id="Path-2" data-name="Path" d="M.073.022.044,0V.015C.03.015-.007-.008,0,0,.2.294.2,117.871.2,117.871s48.178-3.534,56.075,0C90.222,133.042,50.379,7.876.073.022Z" transform="translate(0.42 0.599)" fill="none"/>
    </clipPath>
    <clipPath id="clip-path-4">
      <path id="Path-3" data-name="Path" d="M69.283.022,69.313,0V.014c.014,0,.052-.023.043-.011-.2.289-.2,117.009-.2,117.009s-48.494-3.508-56.442,0C-21.459,132.073,18.645,7.819,69.283.022Z" transform="translate(0.551 0.053)" fill="none"/>
    </clipPath>
  </defs>
  <g id="Illustration_1" data-name="Illustration 1">
    <circle id="Mask-2" data-name="Mask" cx="142.15" cy="142.15" r="142.15" transform="translate(0 0)" fill="#e8fff1"/>
    <g id="Illustration_1-2" data-name="Illustration 1" clip-path="url(#clip-path)">
      <text id="_" data-name="?" transform="translate(48.918 163.914)" fill="#c6f4d9" font-size="51.045" font-family="Rubik-Medium, Rubik" font-weight="500"><tspan x="-14.395" y="0">?</tspan></text>
      <text id="_copy" data-name="? copy" transform="translate(192.481 99.045)" fill="#c6f4d9" font-size="51.045" font-family="Rubik-Medium, Rubik" font-weight="500"><tspan x="-14.395" y="0">?</tspan></text>
      <text id="_copy_2" data-name="? copy 2" transform="translate(226.511 203.261)" fill="#c6f4d9" font-size="51.045" font-family="Rubik-Medium, Rubik" font-weight="500"><tspan x="-14.395" y="0">?</tspan></text>
      <g id="Illustration_1-3" data-name="Illustration 1" transform="translate(7.444 71.25)">
        <g id="Clipped">
          <path id="Path-4" data-name="Path" d="M266.475,0H0V212.041H266.475Z" transform="translate(0.234 0.605)" fill="none"/>
          <g id="Clipped-2" data-name="Clipped" clip-path="url(#clip-path-2)">
            <g id="Group" transform="translate(46.931 21.261)">
              <path id="Path-5" data-name="Path" d="M50.866,2.887S30.871-9.281,21.773,16.344c0,0-7.662,18.08,0,24.008S15.028,55.8,12.2,57.633c-9.718,6.283-18.01,15.143-6.85,42.578s48.487,23.125,48.487,23.125Z" transform="translate(32.574 5.952)" fill="#151719"/>
              <path id="Path-6" data-name="Path" d="M10.761,13.145S15.055,2.5,23.642.659C33.312-1.413,44.862.071,52.319,25.08c3.021,10.136-1.348,29.363,3,34.993C62,68.73,84.9,79.812,81.91,90.555c-3.6,12.915-28.608,37.318-43.33,23.6-16.806-15.659-13.332-37.8-13.332-37.8L14.65,52.388.258,30.294S-2.606,14.786,10.761,13.145Z" transform="translate(65.293 0.881)" fill="#151719"/>
              <path id="Path-7" data-name="Path" d="M.074.022.044,0V.014C.03.014-.007-.008,0,0,.206.292.206,117.012.206,117.012s48.829-3.508,56.833,0C91.442,132.073,51.061,7.819.074.022Z" transform="translate(102.288 80.569)" fill="#ffc50c"/>
              <path id="Path-8" data-name="Path" d="M69.762.022,69.792,0V.014c.014,0,.052-.023.043-.011-.2.289-.2,117.009-.2,117.009s-48.829-3.508-56.833,0C-21.607,132.073,18.774,7.819,69.762.022Z" transform="translate(0.551 80.569)" fill="#ffc50c"/>
              <path id="Path-9" data-name="Path" d="M32.862,36.488S22.482,35.179,24.8,7.276L25.431,0s-5.615,4.367-7.752,5.292S8.6,7.276,8.6,7.276C10.918,35.179.136,36.488.136,36.488-1.655,54.849,14.8,54.849,17.044,54.849,18.535,54.849,37.075,53.981,32.862,36.488Z" transform="translate(69.753 44.085)" fill="#ffb5a1"/>
              <path id="Path-10" data-name="Path" d="M16.388,11.97C8.306,11.97,1.344,7.259,0,0V111.639l32.432-.754L32.929,0H32.6C31.253,7.261,24.471,11.97,16.388,11.97Z" transform="translate(70.065 86.699)" fill="#26c165"/>
              <path id="Path-11" data-name="Path" d="M0,0H15.545S8.427,9.452,0,0Z" transform="translate(78.677 58.292)" fill="#e89c8b"/>
              <path id="Path-12" data-name="Path" d="M6.209,0S8.27,5.27,4.98,8.676C1.027,12.77.573,19.5,0,16.621,0,16.622-.268-.066,6.209,0Z" transform="translate(106.501 98.066)" fill="#e5b20c"/>
              <path id="Path-13" data-name="Path" d="M16.9,0S20.162,15.169,0,34.09V29.634Z" transform="translate(102.617 150.384)" fill="#e5b20c"/>
              <path id="Path-14" data-name="Path" d="M.007,10.265S-.934,41.823,18.623,41.823,34.174,9.184,34.174,9.184L12.039,0Z" transform="translate(67.784 18.53)" fill="#ffb5a1"/>
              <path id="Path-15" data-name="Path" d="M14.9,1.067S11.823,14.5,0,16.189C0,16.189,1.431-4.914,14.9,1.067Z" transform="translate(64.929 17.466)" fill="#151719"/>
              <path id="Path-16" data-name="Path" d="M0,4.208S3.382,17.469,17.34,17.943l6.739-.677S24.308-10.272,0,4.208Z" transform="translate(79.948 14.133)" fill="#151719"/>
              <path id="Path-17" data-name="Path" d="M1.379,0S10.531,1.262,0,10.868Z" transform="translate(100.702 36.888)" fill="#ffb5a1"/>
              <path id="Path-18" data-name="Path" d="M2.046,4.122A2.061,2.061,0,1,0,0,2.061,2.054,2.054,0,0,0,2.046,4.122Z" transform="translate(99.912 43.688)" fill="#fff"/>
              <path id="Path-19" data-name="Path" d="M3.688,0S-5.464,1.262,5.067,10.868Z" transform="translate(65.627 36.888)" fill="#ffb5a1"/>
              <path id="Path-20" data-name="Path" d="M2.046,4.122A2.061,2.061,0,1,0,0,2.061,2.054,2.054,0,0,0,2.046,4.122Z" transform="translate(67.394 43.688)" fill="#fff"/>
              <g id="Clipped-3" data-name="Clipped" transform="translate(102.662 80.665)">
                <path id="Path-21" data-name="Path" d="M.073.022.044,0V.015C.03.015-.007-.008,0,0,.2.294.2,117.871.2,117.871s48.178-3.534,56.075,0C90.222,133.042,50.379,7.876.073.022Z" transform="translate(0.42 0.599)" fill="none"/>
                <g id="Clipped-4" data-name="Clipped" clip-path="url(#clip-path-3)">
                  <g id="Group-2" data-name="Group" transform="translate(-39.272 -33.545)">
                    <path id="Path-22" data-name="Path" d="M34.452,69.181A34.591,34.591,0,1,0,0,34.591,34.521,34.521,0,0,0,34.452,69.181Z" transform="translate(0.136 0.834)" fill="none" stroke="#fffffe" stroke-miterlimit="10" stroke-width="11.18" opacity="0.5"/>
                    <path id="Path-23" data-name="Path" d="M35.09,70.463A35.232,35.232,0,1,0,0,35.231,35.161,35.161,0,0,0,35.09,70.463Z" transform="translate(40.968 121.26)" fill="none" stroke="#fffffe" stroke-miterlimit="10" stroke-width="11.18" opacity="0.5"/>
                  </g>
                </g>
              </g>
              <g id="Clipped-5" data-name="Clipped" transform="translate(0 80.515)">
                <path id="Path-24" data-name="Path" d="M69.283.022,69.313,0V.014c.014,0,.052-.023.043-.011-.2.289-.2,117.009-.2,117.009s-48.494-3.508-56.442,0C-21.459,132.073,18.645,7.819,69.283.022Z" transform="translate(0.551 0.053)" fill="none"/>
                <g id="Clipped-6" data-name="Clipped" clip-path="url(#clip-path-4)">
                  <path id="Path-25" data-name="Path" d="M34.258,69.473A34.5,34.5,0,0,0,68.517,34.737,34.5,34.5,0,0,0,34.258,0,34.5,34.5,0,0,0,0,34.737,34.5,34.5,0,0,0,34.258,69.473Z" transform="translate(-6.201 29.585)" fill="none" stroke="#fcfcfb" stroke-miterlimit="10" stroke-width="11.18" opacity="0.5"/>
                </g>
              </g>
              <path id="Path-26" data-name="Path" d="M0,0S11.011,15.156,10.706,20.755c-.121,2.228-5.136,5.326-5.757,8.2A18.757,18.757,0,0,0,6.059,40.33C9.952,49.381,19.79,65.245,16.08,74.968,11.049,88.141,0,99.444,0,99.444Z" transform="translate(102.617 80.573)" fill="#ff4133"/>
              <path id="Path-27" data-name="Path" d="M16.9,0S5.891,15.156,6.2,20.755c.121,2.228,5.136,5.326,5.757,8.2a18.757,18.757,0,0,1-1.11,11.379C6.949,49.381-2.888,65.245.821,74.968,5.853,88.141,16.9,99.444,16.9,99.444Z" transform="translate(53.165 80.573)" fill="#ff4133"/>
              <path id="Path-28" data-name="Path" d="M4.474,0s-5.5,14.3-4.3,25.07" transform="translate(9.899 166.26)" fill="none" stroke="#151719" stroke-miterlimit="10" stroke-width="0.5"/>
              <path id="Path-29" data-name="Path" d="M2.72,21.67A68.143,68.143,0,0,1,.3,0" transform="translate(44.622 169.714)" fill="none" stroke="#151719" stroke-miterlimit="10" stroke-width="0.5"/>
              <path id="Path-30" data-name="Path" d="M39.442,10.392l1.241,19.523S9.428,41.384,0,17.593L7.412,0Z" transform="translate(10.069 145.654)" fill="#ff4133"/>
              <path id="Path-31" data-name="Path" d="M5.886,49.268s20.378-24.56,13.913-23.2-9.633,3.677-9.633,3.677S17.32-.2,13.477,0,0,24.634,0,24.634Z" transform="translate(43.625 106.779)" fill="#ffb5a1"/>
              <path id="Path-32" data-name="Path" d="M28.551,3.725S15.976-1.873,10.357.656,0,19.765,0,19.765s-.078,8.208,9.822,13.327S32.03,30.158,32.03,30.158Z" transform="translate(17.481 125.889)" fill="#ffb5a1"/>
              <path id="Path-33" data-name="Path" d="M4.692,0S13.244,20.766,0,19.554" transform="translate(39.477 129.055)" fill="none" stroke="#e89c8b" stroke-miterlimit="10" stroke-width="0.745"/>
              <path id="Path-34" data-name="Path" d="M7.873,57S14.208,30.122,0,0" transform="translate(132.41 134.326)" fill="none" stroke="#151719" stroke-miterlimit="10" stroke-width="0.5"/>
              <path id="Path-35" data-name="Path" d="M.637,0s-2.06,5.27,1.23,8.675C5.82,12.77,6.273,19.5,6.846,16.621,6.844,16.622,7.113-.066.637,0Z" transform="translate(59.332 98.066)" fill="#e5b20c"/>
              <path id="Path-36" data-name="Path" d="M.2,0s-3.266,15.169,16.9,34.09V29.634Z" transform="translate(52.979 150.384)" fill="#e5b20c"/>
            </g>
          </g>
        </g>
      </g>
    </g>
  </g>
  <g id="Group-3" data-name="Group" transform="translate(58.489 59.552)">
    <path id="Path-37" data-name="Path" d="M37.917,0H12.022A12.021,12.021,0,0,0,0,12.022V27.287A12.022,12.022,0,0,0,12.022,39.31H19.17l5.8,5.8,5.8-5.8h7.15A12.021,12.021,0,0,0,49.939,27.287V12.022A12.021,12.021,0,0,0,37.917,0Z" transform="translate(0 0)" fill="#ff5668"/>
    <g id="wallet_outlined" transform="translate(15.951 10.634)">
      <path id="Icon_color" data-name="Icon color" d="M16.069,18.078H2.009A2.011,2.011,0,0,1,0,16.069V3.013A3.017,3.017,0,0,1,3.013,0H14.061a2.011,2.011,0,0,1,2.009,2.009H3.013a1,1,0,1,0,0,2.009H16.069a2.011,2.011,0,0,1,2.009,2.009V16.069A2.011,2.011,0,0,1,16.069,18.078ZM2.009,6.026V16.069H16.069V14.061H9.04a1.006,1.006,0,0,1-1-1V9.04a1.006,1.006,0,0,1,1-1h7.03V6.026Zm8.537,4.017a.5.5,0,0,0-.5.5v1a.5.5,0,0,0,.5.5h1a.5.5,0,0,0,.5-.5v-1a.5.5,0,0,0-.5-.5Z" fill="#fff"/>
    </g>
  </g>
</svg>
